<?xml version="1.0" standalone="no"?>
<!DOCTYPE svg PUBLIC "-//W3C//DTD SVG 20010904//EN"
 "http://www.w3.org/TR/2001/REC-SVG-20010904/DTD/svg10.dtd">
<svg version="1.0" xmlns="http://www.w3.org/2000/svg"
 width="512.000000pt" height="512.000000pt" viewBox="0 0 512.000000 512.000000"
 preserveAspectRatio="xMidYMid meet">

<g transform="translate(0.000000,512.000000) scale(0.100000,-0.100000)"
fill="#000000" stroke="none">
<path d="M0 2560 l0 -2560 2560 0 2560 0 0 2560 0 2560 -2560 0 -2560 0 0
-2560z m2245 2294 c44 -21 85 -74 129 -168 38 -83 48 -164 26 -221 l-10 -27
27 22 26 21 39 -133 c51 -177 52 -241 4 -333 -19 -36 -48 -82 -64 -103 -16
-20 -37 -50 -47 -67 l-19 -30 26 24 26 23 18 -33 c9 -19 30 -46 46 -60 25 -24
26 -27 7 -22 -14 4 -20 2 -16 -4 8 -13 116 -40 212 -53 175 -24 321 -89 434
-196 132 -124 172 -237 137 -387 -32 -137 -102 -239 -209 -304 -107 -65 -237
-79 -399 -43 -117 26 -218 67 -368 152 -194 109 -238 145 -500 403 -323 319
-445 414 -597 464 -98 33 -135 29 -188 -20 -61 -56 -74 -101 -52 -172 21 -66
68 -122 138 -164 96 -57 149 -66 391 -67 l217 -1 158 -156 c172 -169 236 -217
448 -333 173 -94 262 -129 400 -157 97 -20 116 -20 194 -10 165 23 292 115
363 261 46 96 61 166 56 266 -2 58 -10 94 -30 135 l-26 56 132 13 c196 19 371
-5 601 -81 298 -99 564 -317 688 -564 101 -202 132 -453 82 -651 -59 -231
-161 -377 -395 -564 -255 -203 -441 -298 -680 -346 -118 -25 -137 -26 -345
-21 -251 6 -360 21 -513 72 -155 52 -285 124 -440 242 -375 289 -654 433 -836
434 -86 1 -127 -14 -186 -68 -78 -70 -91 -148 -40 -250 34 -67 114 -149 178
-182 92 -47 138 -52 412 -45 294 8 325 4 473 -61 209 -92 369 -199 453 -302
62 -76 86 -147 92 -276 4 -98 2 -113 -23 -184 -34 -96 -59 -135 -126 -199 -65
-61 -140 -99 -234 -119 -122 -26 -195 -18 -195 20 0 25 20 35 156 74 106 31
162 72 202 151 31 61 33 72 35 181 l2 116 -52 105 c-83 167 -157 223 -347 262
-100 21 -194 14 -405 -30 -90 -19 -213 -42 -273 -50 -199 -28 -251 -8 -600
224 l-186 124 -36 78 c-102 224 -126 462 -65 650 47 144 52 151 137 197 272
146 583 220 810 194 53 -7 139 -23 191 -36 152 -38 391 -84 475 -92 89 -7 98
-12 281 -157 150 -120 327 -238 419 -282 113 -53 184 -68 326 -67 195 1 322
43 432 142 89 79 167 217 168 294 1 17 7 54 14 82 17 65 7 101 -40 141 -57 49
-164 102 -250 125 -111 30 -331 32 -424 5 -88 -26 -258 -99 -344 -148 l-71
-40 -160 5 c-146 4 -174 8 -315 45 -85 22 -222 63 -305 91 -263 91 -315 102
-540 112 -250 11 -400 30 -535 68 -256 72 -362 123 -464 225 -71 69 -117 147
-174 291 -56 143 -67 195 -66 320 1 131 27 223 94 337 93 155 230 252 425 299
112 26 236 21 376 -16 241 -63 369 -140 535 -324 58 -64 180 -185 272 -270 92
-84 217 -204 277 -265 106 -108 255 -223 342 -267 52 -25 142 -36 171 -20 31
16 37 53 17 95 -15 30 -33 44 -109 81 -50 25 -154 69 -231 98 -216 81 -289
140 -390 309 -27 46 -80 113 -119 152 -96 96 -127 159 -134 274 -4 77 -1 101
28 202 18 63 33 116 35 118 6 7 35 -12 35 -23 0 -8 3 -16 8 -18 4 -3 7 30 7
72 0 56 5 84 18 104 22 33 22 43 0 26 -33 -27 73 154 110 187 42 39 87 44 142
18z m-240 -82 c-3 -3 -11 0 -18 7 -9 10 -8 11 6 5 10 -3 15 -9 12 -12z m-10
-20 c-3 -3 -11 0 -18 7 -9 10 -8 11 6 5 10 -3 15 -9 12 -12z m-50 -142 c-3 -5
-11 -10 -16 -10 -6 0 -7 5 -4 10 3 6 11 10 16 10 6 0 7 -4 4 -10z m-70 -178
c-3 -3 -11 0 -18 7 -9 10 -8 11 6 5 10 -3 15 -9 12 -12z m-792 -59 c-7 -2 -19
-2 -25 0 -7 3 -2 5 12 5 14 0 19 -2 13 -5z m90 -10 c-7 -2 -19 -2 -25 0 -7 3
-2 5 12 5 14 0 19 -2 13 -5z m-442 -41 c-7 -2 -18 1 -23 6 -8 8 -4 9 13 5 13
-4 18 -8 10 -11z m579 8 c18 -12 2 -12 -25 0 -13 6 -15 9 -5 9 8 0 22 -4 30
-9z m90 -30 c8 -5 11 -10 5 -10 -5 0 -17 5 -25 10 -8 5 -10 10 -5 10 6 0 17
-5 25 -10z m-780 -20 c8 -5 11 -10 5 -10 -5 0 -17 5 -25 10 -8 5 -10 10 -5 10
6 0 17 -5 25 -10z m1955 -200 c3 -6 -1 -7 -9 -4 -18 7 -21 14 -7 14 6 0 13 -4
16 -10z m-805 -45 c7 -9 8 -15 2 -15 -5 0 -12 7 -16 15 -3 8 -4 15 -2 15 2 0
9 -7 16 -15z m90 -106 c0 -6 -4 -7 -10 -4 -5 3 -10 11 -10 16 0 6 5 7 10 4 6
-3 10 -11 10 -16z m230 -183 c0 -2 -7 -7 -16 -10 -8 -3 -12 -2 -9 4 6 10 25
14 25 6z m675 -24 c-3 -3 -11 0 -18 7 -9 10 -8 11 6 5 10 -3 15 -9 12 -12z
m142 -38 c-3 -3 -12 -4 -19 -1 -8 3 -5 6 6 6 11 1 17 -2 13 -5z m63 -4 c8 -5
11 -10 5 -10 -5 0 -17 5 -25 10 -8 5 -10 10 -5 10 6 0 17 -5 25 -10z m36 -32
c-9 -5 -23 -5 -32 0 -12 6 -7 9 16 9 23 0 28 -3 16 -9z m154 -124 c0 -2 -9 0
-20 6 -11 6 -20 13 -20 16 0 2 9 0 20 -6 11 -6 20 -13 20 -16z m110 -34 c0 -5
-5 -10 -11 -10 -5 0 -7 5 -4 10 3 6 8 10 11 10 2 0 4 -4 4 -10z m253 3 c-24
-2 -62 -2 -85 0 -24 2 -5 4 42 4 47 0 66 -2 43 -4z m304 -39 c-3 -3 -12 -4
-19 -1 -8 3 -5 6 6 6 11 1 17 -2 13 -5z m198 -54 c13 -5 14 -9 5 -9 -8 0 -24
4 -35 9 -13 5 -14 9 -5 9 8 0 24 -4 35 -9z m90 -40 c3 -6 -1 -7 -9 -4 -18 7
-21 14 -7 14 6 0 13 -4 16 -10z m580 -480 c-3 -5 -12 -10 -18 -10 -7 0 -6 4 3
10 19 12 23 12 15 0z m-3745 -45 c19 -7 28 -14 20 -14 -8 0 -28 6 -45 14 -39
17 -21 18 25 0z m227 -61 c-3 -3 -12 -4 -19 -1 -8 3 -5 6 6 6 11 1 17 -2 13
-5z m-82 -54 c3 -6 -1 -7 -9 -4 -18 7 -21 14 -7 14 6 0 13 -4 16 -10z m-370
-538 c-3 -3 -11 0 -18 7 -9 10 -8 11 6 5 10 -3 15 -9 12 -12z m4100 -52 c3 -6
-1 -7 -9 -4 -18 7 -21 14 -7 14 6 0 13 -4 16 -10z m-30 -100 c3 -6 -1 -7 -9
-4 -18 7 -21 14 -7 14 6 0 13 -4 16 -10z m-50 -120 c3 -6 -1 -7 -9 -4 -18 7
-21 14 -7 14 6 0 13 -4 16 -10z m-10 -19 c3 -5 0 -13 -6 -17 -7 -4 -9 -3 -5 4
3 5 0 13 -6 15 -9 4 -10 6 -1 6 6 1 14 -3 18 -8z m-3142 -8 c-7 -2 -19 -2 -25
0 -7 3 -2 5 12 5 14 0 19 -2 13 -5z m138 -41 c-7 -2 -18 1 -23 6 -8 8 -4 9 13
5 13 -4 18 -8 10 -11z m44 -22 c-27 -12 -43 -12 -25 0 8 5 22 9 30 9 10 0 8
-3 -5 -9z m45 -30 c8 -5 11 -10 5 -10 -5 0 -17 5 -25 10 -8 5 -10 10 -5 10 6
0 17 -5 25 -10z m90 -24 c0 -2 -7 -7 -16 -10 -8 -3 -12 -2 -9 4 6 10 25 14 25
6z m60 -46 c-8 -5 -19 -10 -25 -10 -5 0 -3 5 5 10 8 5 20 10 25 10 6 0 3 -5
-5 -10z m2624 -35 c-4 -8 -11 -15 -16 -15 -6 0 -5 6 2 15 7 8 14 15 16 15 2 0
1 -7 -2 -15z m-2549 -15 c-3 -5 -12 -10 -18 -10 -7 0 -6 4 3 10 19 12 23 12
15 0z m-660 -20 c-3 -5 -12 -10 -18 -10 -7 0 -6 4 3 10 19 12 23 12 15 0z
m3105 -44 c0 -2 -7 -7 -16 -10 -8 -3 -12 -2 -9 4 6 10 25 14 25 6z m-2954
-112 c18 -14 18 -14 -6 -3 -31 14 -36 19 -24 19 6 0 19 -7 30 -16z m467 -31
c-13 -2 -33 -2 -45 0 -13 2 -3 4 22 4 25 0 35 -2 23 -4z m160 0 c-7 -2 -21 -2
-30 0 -10 3 -4 5 12 5 17 0 24 -2 18 -5z m74 -9 c-3 -3 -12 -4 -19 -1 -8 3 -5
6 6 6 11 1 17 -2 13 -5z m402 -180 c14 -12 -19 -1 -35 12 -18 14 -18 14 6 3
14 -6 27 -13 29 -15z m151 -49 c0 -1 -8 -5 -18 -7 -11 -3 -19 0 -19 7 0 7 8
10 19 7 10 -2 18 -6 18 -7z m15 -35 c-3 -5 -11 -10 -16 -10 -6 0 -7 5 -4 10 3
6 11 10 16 10 6 0 7 -4 4 -10z m122 -6 c-3 -3 -12 -4 -19 -1 -8 3 -5 6 6 6 11
1 17 -2 13 -5z m810 -10 c-3 -3 -12 -4 -19 -1 -8 3 -5 6 6 6 11 1 17 -2 13 -5z
m-692 -14 c3 -5 1 -10 -4 -10 -6 0 -11 5 -11 10 0 6 2 10 4 10 3 0 8 -4 11
-10z m642 4 c-3 -3 -12 -4 -19 -1 -8 3 -5 6 6 6 11 1 17 -2 13 -5z m-564 -11
c-7 -2 -21 -2 -30 0 -10 3 -4 5 12 5 17 0 24 -2 18 -5z m510 0 c-7 -2 -19 -2
-25 0 -7 3 -2 5 12 5 14 0 19 -2 13 -5z m-2608 -13 c3 -6 -1 -7 -9 -4 -18 7
-21 14 -7 14 6 0 13 -4 16 -10z m2288 3 c-13 -2 -35 -2 -50 0 -16 2 -5 4 22 4
28 0 40 -2 28 -4z m220 0 c-7 -2 -21 -2 -30 0 -10 3 -4 5 12 5 17 0 24 -2 18
-5z m-1220 -160 c-7 -2 -19 -2 -25 0 -7 3 -2 5 12 5 14 0 19 -2 13 -5z m652
-33 c-3 -5 -12 -10 -18 -10 -7 0 -6 4 3 10 19 12 23 12 15 0z m-835 -10 c-8
-5 -22 -9 -30 -9 -10 0 -8 3 5 9 27 12 43 12 25 0z m366 -2 c-9 -5 -23 -5 -32
0 -12 6 -7 9 16 9 23 0 28 -3 16 -9z m-431 -17 c-6 -5 -23 -12 -40 -15 -28 -6
-28 -5 5 8 43 18 46 18 35 7z m501 -22 c3 -6 -5 -3 -20 6 -14 10 -26 19 -26
22 0 7 39 -17 46 -28z m-1129 5 c-3 -3 -12 -4 -19 -1 -8 3 -5 6 6 6 11 1 17
-2 13 -5z m120 -30 c-3 -3 -12 -4 -19 -1 -8 3 -5 6 6 6 11 1 17 -2 13 -5z
m340 0 c-3 -3 -12 -4 -19 -1 -8 3 -5 6 6 6 11 1 17 -2 13 -5z m-239 -11 c-10
-2 -26 -2 -35 0 -10 3 -2 5 17 5 19 0 27 -2 18 -5z m150 0 c-10 -2 -26 -2 -35
0 -10 3 -2 5 17 5 19 0 27 -2 18 -5z m1182 -113 c0 -22 -4 -40 -10 -40 -5 0
-10 18 -10 40 0 22 5 40 10 40 6 0 10 -18 10 -40z m-310 -115 c0 -14 -4 -25
-10 -25 -5 0 -10 11 -10 25 0 14 5 25 10 25 6 0 10 -11 10 -25z m-76 -140 c-4
-8 -11 -15 -16 -15 -6 0 -5 6 2 15 7 8 14 15 16 15 2 0 1 -7 -2 -15z m250 -99
c-3 -8 -18 -22 -32 -32 -26 -16 -26 -16 3 14 34 36 36 37 29 18z m-187 -154
c6 -4 -7 -8 -30 -8 -30 -1 -36 1 -22 7 26 10 37 10 52 1z m-120 -28 c-3 -3
-12 -4 -19 -1 -8 3 -5 6 6 6 11 1 17 -2 13 -5z"/>
<path d="M2283 4559 c3 -23 11 -47 18 -53 9 -8 10 -5 5 14 -3 14 -6 37 -6 53
0 15 -5 27 -11 27 -8 0 -10 -14 -6 -41z"/>
<path d="M2097 4570 c-18 -48 -25 -80 -18 -80 13 0 33 56 28 77 -3 14 -5 15
-10 3z"/>
<path d="M2206 4209 c-3 -17 -6 -73 -5 -123 0 -121 16 -83 21 52 3 101 -4 131
-16 71z"/>
<path d="M1327 4030 c194 -115 270 -176 423 -340 197 -211 323 -340 328 -335
11 10 -302 369 -411 471 -94 87 -243 189 -366 251 -146 74 -131 47 26 -47z"/>
<path d="M649 3793 c-32 -83 -8 -271 50 -388 39 -78 121 -156 204 -195 60 -29
242 -76 232 -61 -2 4 -58 29 -123 56 -65 26 -140 63 -165 81 -58 42 -110 112
-136 184 -29 77 -54 235 -48 298 6 58 2 66 -14 25z"/>
<path d="M2939 3360 c48 -74 65 -140 65 -248 0 -89 7 -94 25 -20 26 109 3 205
-66 279 -25 27 -50 49 -54 49 -5 0 9 -27 30 -60z"/>
<path d="M2248 3193 c37 -53 136 -136 214 -180 70 -40 179 -79 177 -65 0 4
-31 22 -68 39 -89 43 -211 122 -286 187 -49 42 -56 45 -37 19z"/>
<path d="M1361 3086 c20 -20 335 -113 346 -102 7 6 -97 43 -216 77 -96 27
-141 35 -130 25z"/>
<path d="M3941 2990 c48 -26 130 -101 205 -188 123 -144 210 -374 184 -487
-12 -51 -6 -55 20 -14 19 30 21 45 17 123 -4 82 -8 96 -56 192 -80 161 -221
326 -316 370 -62 29 -108 33 -54 4z"/>
<path d="M1910 2211 c0 -4 27 -15 61 -25 104 -29 184 -75 444 -256 169 -118
210 -141 388 -220 247 -109 351 -132 523 -115 66 7 74 9 49 16 -16 4 -88 12
-160 18 -152 11 -223 33 -455 140 -111 52 -196 102 -364 215 -238 161 -351
221 -433 230 -29 3 -53 2 -53 -3z"/>
<path d="M1130 2156 c-59 -146 -75 -305 -45 -436 21 -88 85 -214 142 -279 43
-50 124 -111 146 -111 5 0 -17 28 -48 63 -145 159 -215 314 -215 477 0 55 18
172 46 308 10 48 -1 39 -26 -22z"/>
<path d="M4054 1918 c-16 -18 -51 -51 -77 -72 -26 -21 -46 -41 -43 -43 7 -8
80 34 102 59 28 32 57 79 51 84 -2 3 -17 -10 -33 -28z"/>
</g>
</svg>
